<svg width="178" height="45" viewBox="0 0 178 45" fill="none" xmlns="http://www.w3.org/2000/svg">
<g clip-path="url(#clip0_3775_178919)">
<path d="M10.2219 14.5156L10.5134 14.6498C10.5624 14.6688 10.6123 14.6829 10.6636 14.6872C12.6645 14.8524 14.3977 15.5894 15.8834 16.8601C16.2783 17.1968 16.2716 17.2413 15.9235 17.6161C15.3279 18.2578 14.7391 18.9059 14.1568 19.554C13.8155 19.9352 13.7486 19.9415 13.3337 19.5984C12.3031 18.7407 11.1186 18.207 9.73333 18.0927C7.65208 17.9147 5.63775 19.052 4.828 20.8755C4.02495 22.6926 4.09857 24.4779 5.16261 26.1616C6.18651 27.7754 7.77923 28.4679 9.7668 28.3599C11.2659 28.2773 12.4905 27.6356 13.5747 26.7017C13.8557 26.4602 13.9427 26.4602 14.2104 26.7143C14.8528 27.3306 15.4886 27.9469 16.1376 28.5569C16.3652 28.7666 16.3518 28.9254 16.1243 29.1351C15.1339 30.05 14.0564 30.8314 12.7381 31.2889C12.4035 31.4032 12.0622 31.5176 11.7142 31.5748C10.7974 31.7273 9.89393 32.0069 8.95035 31.9179C6.4408 31.6701 4.18556 30.8823 2.46568 29.0334C1.1808 27.6547 0.43797 26.0536 0.243898 24.2174C0.230513 24.1031 0.12344 23.9951 0.0565186 23.887V22.6227C0.12344 22.4766 0.237206 22.3431 0.25059 22.1907C0.364357 21.1042 0.69227 20.0813 1.24103 19.1283C2.74006 16.536 5.06222 15.0684 8.15399 14.6872L8.29081 14.6469L8.55551 14.5156H10.2219ZM151.298 14.9095C151.693 14.9095 151.794 15.0048 151.794 15.3733V20.3735H151.834C151.794 22.1144 151.82 23.8553 151.7 25.5961C151.6 27.1083 151.064 28.506 149.967 29.6624C148.769 30.933 147.216 31.5176 145.47 31.7336C145.094 31.7781 144.72 31.9179 144.352 31.8925C142.23 31.7653 140.156 31.4667 138.543 29.961C137.707 29.1859 137.171 28.2392 136.843 27.1718C136.549 26.206 136.482 25.2212 136.476 24.2301C136.469 21.2884 136.469 18.3404 136.469 15.3987C136.469 15.0112 136.569 14.9095 136.978 14.9095H139.922C140.33 14.9095 140.423 15.0112 140.423 15.4051C140.423 18.4039 140.411 21.3964 140.423 24.3953C140.43 25.2657 140.564 26.1171 141.059 26.8859C141.387 27.4005 141.823 27.8135 142.411 28.0168C143.884 28.5314 145.329 28.5378 146.614 27.5721C147.35 27.0193 147.658 26.2188 147.765 25.3547C147.818 24.9608 147.832 24.5541 147.832 24.1539C147.839 21.2313 147.832 18.3087 147.832 15.386C147.832 15.0175 147.932 14.9095 148.32 14.9095C149.311 14.9032 150.308 14.9095 151.298 14.9095ZM173.162 14.8969C174.265 14.9096 175.37 14.8969 176.474 14.9032C176.916 14.9032 177.057 15.043 177.057 15.4433V31.0221C177.057 31.3906 176.916 31.543 176.527 31.5494C175.504 31.5557 174.48 31.5494 173.449 31.5494C173.155 31.5494 173.021 31.4033 173.021 31.1365C173.027 27.9152 173.034 24.7003 173.041 21.4791C173.041 21.3584 173.027 21.2376 173.021 21.1169C172.994 21.1042 172.961 21.0915 172.934 21.0788C172.834 21.1932 172.72 21.2948 172.632 21.4156C171.549 22.9722 170.465 24.5287 169.394 26.0981C169.227 26.3395 169.02 26.4348 168.725 26.4221C168.323 26.4094 167.922 26.4031 167.52 26.4221C167.219 26.4348 167.011 26.3332 166.851 26.0981C165.82 24.5986 164.783 23.0992 163.739 21.6062C163.632 21.4537 163.511 21.3139 163.397 21.1741C163.357 21.1741 163.318 21.1868 163.285 21.1995C163.271 21.2758 163.244 21.3584 163.244 21.4346C163.244 24.5161 163.251 27.5975 163.257 30.679C163.257 30.8251 163.264 30.9712 163.271 31.1237C163.278 31.4096 163.144 31.5557 162.829 31.5557C161.825 31.5494 160.821 31.5557 159.818 31.5557C159.543 31.5557 159.402 31.4351 159.396 31.1745V15.4051C159.396 14.9922 159.49 14.9096 159.924 14.9096C160.995 14.9096 162.066 14.9159 163.137 14.9032C163.464 14.8969 163.678 14.9985 163.853 15.2654C165.204 17.3493 166.57 19.4205 167.928 21.4981C168.129 21.8031 168.216 21.8095 168.41 21.5108C169.775 19.4269 171.147 17.3366 172.506 15.2463C172.66 15.0049 172.854 14.8969 173.162 14.8969ZM93.077 14.9032C93.3982 14.8969 93.5924 15.043 93.7731 15.2654L98.9596 21.7396C99.7085 22.6799 100.451 23.6266 101.208 24.5669C101.275 24.6495 101.395 24.7003 101.489 24.7638C101.529 24.6621 101.596 24.5669 101.596 24.4652C101.596 21.4283 101.589 18.3849 101.583 15.348C101.583 15.0176 101.69 14.9159 102.045 14.9096C103.048 14.9032 104.052 14.9032 105.055 14.9096C105.384 14.9096 105.484 15.0303 105.484 15.3797C105.491 17.991 105.491 20.6087 105.491 23.2263V31.0792C105.491 31.4477 105.391 31.543 104.996 31.5494C104.193 31.5494 103.39 31.5367 102.586 31.5557C102.272 31.5621 102.058 31.4413 101.877 31.219C99.3808 28.1058 96.8849 24.9926 94.382 21.8794C94.2749 21.7459 94.1745 21.6062 94.0541 21.4791C93.9938 21.4156 93.9002 21.3774 93.8266 21.3266L93.7527 21.5125C93.7426 21.5433 93.7351 21.5744 93.7329 21.6062C93.7262 21.7523 93.7596 21.8984 93.7596 22.0445C93.7663 25.0625 93.7663 28.0804 93.7663 31.0983C93.7663 31.4413 93.6593 31.5494 93.2845 31.5494C92.3008 31.5494 91.3237 31.5557 90.3399 31.5494C89.9318 31.5494 89.838 31.4413 89.838 31.0538V15.4115C89.838 15.0049 89.9318 14.9096 90.3667 14.9096C91.2702 14.9096 92.1736 14.9159 93.077 14.9032ZM75.4767 14.7761C75.7779 14.7698 75.9586 14.8778 76.0723 15.1319C76.3868 15.8435 76.708 16.5487 77.0293 17.254C78.1201 19.6747 79.2109 22.1017 80.3017 24.5224C81.2855 26.7143 82.2759 28.9063 83.2597 31.0982C83.4002 31.4096 83.3198 31.5366 82.9652 31.543C82.4165 31.5494 81.8744 31.543 81.3256 31.543C80.8036 31.543 80.275 31.5366 79.753 31.5494C79.4385 31.5557 79.2644 31.4287 79.1507 31.1555C78.7291 30.1453 78.2807 29.1477 77.8524 28.1375C77.752 27.8961 77.5981 27.8072 77.3237 27.8072C75.1488 27.8135 72.9738 27.8199 70.8056 27.8072C70.5245 27.8072 70.3774 27.9088 70.2769 28.1439C69.8486 29.1414 69.4137 30.1325 68.9921 31.13C68.8783 31.3968 68.7311 31.5494 68.4098 31.543C67.3725 31.5366 66.3352 31.543 65.2979 31.543C64.9232 31.543 64.8296 31.3842 64.9834 31.0538C65.8267 29.1922 66.6699 27.337 67.5064 25.4754C68.2961 23.7218 69.0925 21.9683 69.882 20.2147C70.625 18.5691 71.3678 16.9172 72.0905 15.2653C72.2511 14.8905 72.4853 14.7634 72.9003 14.7761C73.7568 14.8015 74.6134 14.7888 75.4767 14.7761ZM47.1289 14.9032H58.0303C58.5724 14.9032 58.6259 14.9667 58.6193 15.5004C58.6126 16.2629 58.6193 17.0189 58.6193 17.7813C58.6193 18.1626 58.539 18.2451 58.1307 18.2451C55.3536 18.2451 52.5763 18.2451 49.8058 18.2388C49.2637 18.2388 49.2437 18.2579 49.2437 18.7661C49.2437 19.5286 49.2437 20.2846 49.2369 21.047C49.2369 21.4283 49.2971 21.4981 49.692 21.4981C52.0677 21.4981 54.4434 21.4918 56.8191 21.4918C57.4615 21.4918 57.5017 21.5299 57.495 22.1335C57.4883 22.8641 57.495 23.5884 57.5017 24.3191C57.5084 24.7638 57.4348 24.8464 56.973 24.8464C54.5839 24.8464 52.2015 24.8464 49.8125 24.8401C49.3156 24.8401 49.2517 24.8614 49.2445 25.2516L49.2437 27.7754C49.2437 28.163 49.2904 28.2138 49.6987 28.2138C52.516 28.2138 55.3401 28.2138 58.1575 28.2074C58.6661 28.2074 58.733 28.2647 58.733 28.7475V31.0602C58.733 31.4604 58.6393 31.5494 58.2245 31.5494H45.8842C45.4024 31.5494 45.322 31.4604 45.322 31.0157C45.3287 28.4171 45.322 25.8185 45.322 23.2199V15.3352C45.322 15.0112 45.4291 14.9032 45.7905 14.9032C46.2388 14.8969 46.6806 14.9032 47.1289 14.9032ZM31.3422 14.9096C32.7676 14.9159 34.1328 15.1637 35.3641 15.8943C36.7227 16.7012 37.5056 17.8703 37.7332 19.3634C37.9205 20.6023 37.8536 21.8285 37.258 22.9849C36.6825 24.1031 35.7657 24.8846 34.5946 25.4119C34.1261 25.6216 34.1261 25.6343 34.4206 26.0408C35.5315 27.5721 36.629 29.1033 37.7399 30.6344C37.8737 30.8187 38.021 30.9903 38.1414 31.1745C38.2886 31.4033 38.2083 31.543 37.9272 31.543C36.6423 31.5494 35.3641 31.5557 34.0793 31.5303C33.8986 31.524 33.6711 31.3588 33.5573 31.2C32.4799 29.7005 31.4159 28.1948 30.3651 26.6826C30.1443 26.3649 29.9034 26.1998 29.4684 26.2251C28.8326 26.2633 28.1969 26.2379 27.5612 26.2315C27.1797 26.2315 27.0994 26.295 27.0994 26.6445C27.1061 28.0931 27.1061 29.5353 27.1194 30.9839C27.1194 31.4604 27.0459 31.543 26.5573 31.543H23.6462C23.2581 31.543 23.151 31.4413 23.151 31.0728V15.367C23.151 15.0049 23.2581 14.9032 23.653 14.9032C26.216 14.9032 28.7791 14.8968 31.3422 14.9096ZM120.675 14.9096C122.723 14.9159 124.644 15.3734 126.317 16.5106C129.107 18.4167 130.238 21.0534 129.864 24.2555C129.55 26.9304 128.103 28.9444 125.668 30.3168C124.229 31.1237 122.649 31.5112 120.977 31.5303C118.715 31.5557 116.452 31.543 114.184 31.543C113.836 31.543 113.735 31.4223 113.735 31.0602V15.3861C113.735 15.0049 113.842 14.9032 114.251 14.9032C116.392 14.9032 118.534 14.8968 120.675 14.9096ZM118.052 18.2579C117.771 18.2515 117.691 18.3786 117.691 18.6264C117.704 20.1576 117.704 21.676 117.704 23.1945C117.704 24.732 117.704 26.276 117.697 27.8135C117.697 28.0422 117.758 28.182 118.025 28.182C119.063 28.1693 120.099 28.2074 121.13 28.1312C122.796 28.0105 124.196 27.3688 125.072 25.9647C125.902 24.6368 125.989 23.1882 125.601 21.7078C125.393 20.92 124.985 20.2211 124.363 19.6429C123.392 18.7344 122.194 18.3468 120.863 18.2896C119.925 18.2515 118.989 18.2706 118.052 18.2579ZM74.1316 19.4904H74.0178C73.9643 19.5857 73.8974 19.681 73.8573 19.7827C73.2348 21.2249 72.6191 22.6735 71.9968 24.1157C71.8563 24.4462 71.9032 24.5287 72.2779 24.5287C73.4824 24.5287 74.687 24.5351 75.885 24.5287C76.2262 24.5287 76.2864 24.4398 76.1593 24.1475C75.5503 22.7307 74.9413 21.3202 74.3256 19.9034C74.2654 19.77 74.1985 19.6302 74.1316 19.4904ZM27.4273 18.2706C27.1596 18.2706 27.0994 18.4167 27.0994 18.6391C27.1128 19.2935 27.1061 19.9479 27.1061 20.5959C27.1061 21.2504 27.1128 21.9048 27.1061 22.5592C27.0994 22.8006 27.1797 22.9467 27.4608 22.9404C28.6988 22.934 29.9368 22.9594 31.1683 22.915C31.6433 22.8959 32.1453 22.7879 32.5803 22.6037C34.2131 21.9238 34.0592 19.8017 33.2428 19.0457C32.6941 18.5374 32.0248 18.3341 31.3021 18.3087C30.0105 18.2579 28.7188 18.2769 27.4273 18.2706Z" fill="white"/>
</g>
<defs>
<clipPath id="clip0_3775_178919">
<rect width="177" height="45" fill="white" transform="translate(0.0565186)"/>
</clipPath>
</defs>
</svg>
