<svg width="78" height="50" viewBox="0 0 78 50" fill="none" xmlns="http://www.w3.org/2000/svg">
<path d="M39.4752 12.9023C42.2551 12.9023 44.0539 13.34 45.5574 14.2062L45.8639 14.3925C46.1021 14.0305 46.4058 13.7817 46.5049 13.7027C46.8311 13.4401 47.4053 13.3308 48.1139 13.3308H49.2259V19.5953H46.564L46.4895 19.596C44.697 17.8485 42.3261 16.9304 39.4365 16.9304C34.3735 16.9304 30.4112 20.8525 30.4112 25.7348V25.8059C30.4112 30.6889 34.3355 34.6452 39.4365 34.6452C42.8421 34.6452 44.9128 33.4072 47.0883 31.4373L47.7357 30.7791L49.5 34.79C47.0068 37.4918 44.2704 38.7088 39.2847 38.7088C31.519 38.7088 25.5 33.0406 25.5 25.877V25.8052C25.5 18.7127 31.4051 12.9023 39.4752 12.9023ZM24 12.9023V18.9458H22.9159C22.2239 18.9458 21.6651 18.8403 21.3448 18.5846C21.1624 18.4382 20.5981 17.5508 20.1613 16.8418L14.2441 16.8489L14.2434 33.6124C15.0244 34.0267 16.1051 34.6181 16.2725 34.7997C16.5461 35.0982 16.6606 35.6193 16.6606 36.265V37.2751H7.30649V36.265C7.30649 35.6193 7.42033 35.0982 7.69393 34.7997C7.85577 34.6232 8.86791 34.067 9.64005 33.6559V16.8489H3.83325C3.39781 17.5579 2.83688 18.4388 2.65516 18.584C2.33492 18.8397 1.77536 18.9452 1.08346 18.9452H0V12.9023H24ZM60.386 12.9023V13.9116C60.386 14.5557 60.2728 15.0766 60.0007 15.3741C59.8527 15.5356 58.9914 16.0182 58.2548 16.4146L64.576 31.5017L70.859 16.4344C70.0577 16.008 69.0695 15.4641 68.9175 15.2949C68.7199 15.0793 68.7 14.4673 68.6981 14.1873L68.6979 12.9023H78V14.0897C78 14.2844 78.0048 15.0485 77.7817 15.2949C77.5158 15.586 75.6451 16.5378 75.6451 16.5378L66.5333 37.2751H62.5069L53.3623 16.5391C52.5897 16.1261 51.5503 15.5528 51.3853 15.3741C51.1125 15.0766 51 14.5557 51 13.9116V12.9023H60.386Z" fill="white"/>
</svg>
