<svg width="104" height="41" viewBox="0 0 104 41" fill="none" xmlns="http://www.w3.org/2000/svg">
<g clip-path="url(#clip0_3588_206937)">
<path d="M46.9616 23.5865H44.4312V31.5393H42.9504V23.5865H40.2808V22.3281H47.3669L46.9616 23.5865Z" fill="white"/>
<path d="M48.6389 31.5384V22.3281H53.5594L53.1115 23.5856H50.1072V26.1991H53.098L52.6327 27.4575H50.1072V30.28H53.5729V31.5384H48.6389Z" fill="white"/>
<path d="M58.9813 25.4995C58.8275 25.0381 58.7018 24.6609 58.6457 24.3678H58.632C58.5478 24.688 58.4357 25.0516 58.2683 25.485L57.36 27.9592H59.8333L58.9813 25.4995ZM61.2321 31.5371L60.3094 29.1896H56.8988L56.0321 31.5371H54.5784L58.1427 22.2988H59.1632L62.8116 31.5371H61.2321Z" fill="white"/>
<path d="M67.3463 31.6768C64.4813 31.6768 62.7896 29.664 62.7896 27.0359C62.7896 24.3663 64.7182 22.2422 67.6539 22.2422C68.6743 22.2422 69.5129 22.4802 70.0304 22.7597L70.0025 24.1574C69.2751 23.7095 68.5622 23.4861 67.6675 23.4861C65.5579 23.4861 64.3836 25.0521 64.3836 26.9247C64.3836 28.9095 65.585 30.3768 67.5698 30.3768C68.3813 30.3768 69.1348 30.1389 69.7926 29.7762L70.2114 30.8663C69.247 31.4389 68.2971 31.6768 67.3463 31.6768Z" fill="white"/>
<path d="M77.9685 31.5384V27.4991H73.314V31.5384H71.8467V22.3281H73.314V26.2136H77.9685V22.3281H79.4368V31.5384H77.9685Z" fill="white"/>
<path d="M81.0747 31.5384V22.3281H85.9951L85.5473 23.5856H82.543V26.1991H85.5337L85.0704 27.4575H82.543V30.28H86.0087V31.5384H81.0747Z" fill="white"/>
<path d="M89.9868 23.6001H89.1483V26.6614H90.0149C90.9647 26.6614 91.6641 25.934 91.6641 25.0538C91.6641 24.2568 91.1746 23.6001 89.9868 23.6001ZM92.5162 31.5393C91.0769 29.1627 90.3641 27.9043 90.0014 27.8076H89.1483V31.5393H87.6809V22.3281H89.9723C92.2792 22.3281 93.1594 23.4878 93.1594 24.9C93.1594 26.1574 92.3354 26.968 91.4261 27.3318V27.3454C91.8043 27.5417 92.7822 29.1774 94.2215 31.5395L92.5162 31.5393Z" fill="white"/>
<path d="M97.6098 31.6768C96.3379 31.6768 95.4712 31.258 94.885 30.8798L95.4992 29.7762C95.9606 30.0973 96.687 30.461 97.5547 30.461C98.3082 30.461 99.1893 30.1253 99.1893 29.2868C99.1893 27.8755 96.9675 27.5959 95.8484 26.3521C95.4712 25.9322 95.2197 25.4148 95.2197 24.7019C95.2197 23.3603 96.2547 22.2422 98.1127 22.2422C99.0916 22.2422 99.818 22.4936 100.294 22.7461L100.28 24.1158C99.6515 23.7376 98.9386 23.4725 98.1842 23.4725C97.3872 23.4725 96.7304 23.8082 96.7304 24.5346C96.7304 26.3521 100.755 26.296 100.755 29.1184C100.755 30.6709 99.3847 31.6768 97.6098 31.6768Z" fill="white"/>
<path d="M102.098 25.6023L101.319 25.2376C101.773 24.3148 101.812 23.6252 101.681 22.6628L102.983 22.416C103.204 23.5477 102.931 24.6786 102.098 25.6023Z" fill="white"/>
<path d="M44.1583 35.3239H43.813V37.3744H44.1912C44.9331 37.3744 45.2629 36.9546 45.2629 36.3201C45.2629 35.7359 44.8915 35.3239 44.1583 35.3239ZM44.1337 38.0757H43.8125V40.0035H42.9468V34.5742H44.24C45.4017 34.5742 46.1513 35.1836 46.1513 36.2959C46.1513 37.1113 45.6 38.0757 44.1337 38.0757Z" fill="white"/>
<path d="M47.1165 40.0025V34.5742H50.0163L49.7523 35.3152H47.9812V36.856H49.7445V37.5969H47.9812V39.2616H50.024V40.0025H47.1165Z" fill="white"/>
<path d="M55.0403 40.0025L52.4858 36.6664C52.2226 36.3201 52.0747 36.1054 51.9422 35.8839H51.9257C51.9422 36.0648 51.9422 36.3288 51.9422 36.5919V40.0025H51.0862V34.5742H51.9596L54.4136 37.7865C54.7105 38.1734 54.8585 38.3794 54.9833 38.6019H54.9997C54.9915 38.3796 54.9833 38.1076 54.9833 37.8445V34.5742H55.848V40.0025H55.0403Z" fill="white"/>
<path d="M58.4404 40.0852C57.6907 40.0852 57.18 39.8376 56.8337 39.6161L57.1965 38.9651C57.4682 39.1548 57.8968 39.3684 58.4075 39.3684C58.8524 39.3684 59.3718 39.171 59.3718 38.6769C59.3718 37.844 58.0612 37.6796 57.4025 36.9465C57.1801 36.6997 57.032 36.3941 57.032 35.9743C57.032 35.1841 57.6404 34.5254 58.7363 34.5254C59.3138 34.5254 59.7423 34.6735 60.0218 34.8214L60.0136 35.6291C59.6432 35.4067 59.2234 35.2499 58.7784 35.2499C58.3093 35.2499 57.9224 35.4481 57.9224 35.8757C57.9224 36.9464 60.2941 36.9136 60.2941 38.5782C60.2941 39.4923 59.487 40.0852 58.4404 40.0852Z" fill="white"/>
<path d="M61.2742 34.5742H62.1389V40.0025H61.2742V34.5742Z" fill="white"/>
<path d="M65.8862 35.2749C64.7903 35.2749 64.0571 36.0487 64.0571 37.3178C64.0571 38.5781 64.7903 39.3519 65.8862 39.3519C66.9734 39.3519 67.7066 38.5781 67.7066 37.3178C67.7066 36.0981 67.0228 35.2749 65.8862 35.2749ZM63.9169 35.3166C64.4034 34.8214 65.0863 34.5254 65.8862 34.5254C66.7422 34.5254 67.459 34.8388 67.9455 35.3737C68.3904 35.8679 68.6294 36.5353 68.6294 37.3014C68.6294 38.1168 68.3489 38.8336 67.8468 39.3278C67.3526 39.8144 66.6852 40.0852 65.8862 40.0852C65.1201 40.0852 64.4779 39.8472 64.0001 39.4187C63.4565 38.9158 63.1431 38.1826 63.1431 37.3343C63.1431 36.5276 63.4236 35.8186 63.9169 35.3166Z" fill="white"/>
<path d="M73.5877 40.0025L71.0332 36.6664C70.77 36.3201 70.6221 36.1054 70.4896 35.8839H70.4731C70.4896 36.0648 70.4896 36.3288 70.4896 36.5919V40.0025H69.6335V34.5742H70.507L72.9609 37.7865C73.2588 38.1734 73.4058 38.3794 73.5306 38.6019H73.5471C73.5388 38.3796 73.5306 38.1076 73.5306 37.8445V34.5742H74.3954V40.0025H73.5877Z" fill="white"/>
<path d="M78.968 35.3239H78.6227V37.3744H79.0009C79.7418 37.3744 80.0726 36.9546 80.0726 36.3201C80.0726 35.7359 79.7012 35.3239 78.968 35.3239ZM78.9433 38.0757H78.6228V40.0035H77.7571V34.5742H79.0503C80.212 34.5742 80.9616 35.1836 80.9616 36.2959C80.9616 37.1113 80.4097 38.0757 78.9433 38.0757Z" fill="white"/>
<path d="M81.9236 40.0025V34.5742H82.7796V39.2616H84.7654V40.0025H81.9236Z" fill="white"/>
<path d="M87.7451 36.4467C87.6551 36.175 87.5805 35.9524 87.5476 35.7793H87.5394C87.4901 35.969 87.4243 36.1836 87.3247 36.438L86.7898 37.8966H88.2475L87.7451 36.4467ZM89.0712 40.0053L88.5276 38.6211H86.5176L86.0069 40.0053H85.1499L87.2508 34.5605H87.8524L90.0017 40.0053H89.0712Z" fill="white"/>
<path d="M94.7229 40.0025L92.1684 36.6664C91.9052 36.3201 91.7573 36.1054 91.6248 35.8839H91.6083C91.6248 36.0648 91.6248 36.3288 91.6248 36.5919V40.0025H90.7688V34.5742H91.6422L94.0961 37.7865C94.3931 38.1734 94.5411 38.3794 94.6659 38.6019H94.6823C94.6741 38.3796 94.6659 38.1076 94.6659 37.8445V34.5742H95.5306V40.0025H94.7229Z" fill="white"/>
<path d="M44.2018 11.3774C42.3427 11.3774 41.0988 12.6919 41.0988 14.8441C41.0988 16.9817 42.3427 18.2962 44.2018 18.2962C46.0464 18.2962 47.2912 16.9817 47.2912 14.8441C47.2912 12.7751 46.1305 11.3774 44.2018 11.3774ZM40.8609 11.4471C41.686 10.6094 42.8457 10.1055 44.2018 10.1055C45.6556 10.1055 46.8715 10.6365 47.6965 11.5457C48.451 12.3834 48.8563 13.516 48.8563 14.816C48.8563 16.1992 48.3813 17.415 47.5282 18.2546C46.6896 19.0787 45.5569 19.5401 44.2018 19.5401C42.9018 19.5401 41.8117 19.1348 41.0012 18.4084C40.0784 17.5553 39.5474 16.3114 39.5474 14.8721C39.5474 13.5025 40.0223 12.3002 40.8609 11.4471Z" fill="white"/>
<path d="M57.132 19.3987L52.7987 13.7373C52.3518 13.1512 52.1003 12.7875 51.8769 12.4103H51.8478C51.8769 12.7178 51.8769 13.1647 51.8769 13.6125V19.3987H50.4231V10.1875H51.904L56.07 15.639C56.5729 16.2957 56.8244 16.6449 57.0333 17.0231H57.0624C57.0487 16.6449 57.0333 16.1835 57.0333 15.7366V10.1875H58.5016V19.3987H57.132Z" fill="white"/>
<path d="M66.4233 11.4459H63.8929V19.3987H62.4121V11.4459H59.7424V10.1875H66.8286L66.4233 11.4459Z" fill="white"/>
<path d="M69.9157 13.3647C69.7619 12.9034 69.6361 12.5261 69.58 12.233H69.5663C69.4821 12.5542 69.37 12.9178 69.2026 13.3502L68.2944 15.8244H70.7676L69.9157 13.3647ZM72.1665 19.4024L71.2437 17.0548H67.8331L66.9665 19.4024H65.5127L69.077 10.1641H70.0975L73.746 19.4024H72.1665Z" fill="white"/>
<path d="M77.2112 11.4594H76.3726V14.5208H77.2393C78.1891 14.5208 78.8884 13.7934 78.8884 12.9132C78.8884 12.1162 78.399 11.4594 77.2112 11.4594ZM79.7406 19.3987C78.3013 17.0221 77.5885 15.7647 77.2257 15.667H76.3726V19.3987H74.9053V10.1875H77.1967C79.5036 10.1875 80.3838 11.3482 80.3838 12.7594C80.3838 14.0178 79.5597 14.8274 78.6505 15.1911V15.2048C79.0287 15.4003 80.0066 17.0359 81.4459 19.3979L79.7406 19.3987Z" fill="white"/>
<path d="M82.6047 10.1875H84.073V19.3987H82.6047V10.1875Z" fill="white"/>
<path d="M90.2917 11.3774C88.4326 11.3774 87.1887 12.6919 87.1887 14.8441C87.1887 16.9817 88.4326 18.2962 90.2917 18.2962C92.1362 18.2962 93.3811 16.9817 93.3811 14.8441C93.3811 12.7751 92.2204 11.3774 90.2917 11.3774ZM86.9508 11.4471C87.7758 10.6094 88.9365 10.1055 90.2917 10.1055C91.7455 10.1055 92.9613 10.6365 93.7864 11.5457C94.5408 12.3834 94.9461 13.516 94.9461 14.816C94.9461 16.1992 94.4712 17.415 93.6181 18.2546C92.7794 19.0787 91.6468 19.5401 90.2917 19.5401C88.9917 19.5401 87.9016 19.1348 87.091 18.4084C86.1683 17.5553 85.6372 16.3114 85.6372 14.8721C85.6372 13.5025 86.1121 12.3002 86.9508 11.4471Z" fill="white"/>
<path d="M23.1132 0.916016C15.4699 2.53521 15.496 6.12081 16.1064 7.99535C17.5785 4.97363 20.018 2.45202 23.1132 0.916016Z" fill="white"/>
<path d="M17.0125 9.14709C25.3686 8.01735 25.2825 3.5563 24.8144 1.59375C21.2432 2.99143 18.4778 5.7617 17.0125 9.14709Z" fill="white"/>
<path d="M14.231 18.3594C8.60829 20.4351 4.38717 25.431 3.41895 31.4986C6.0789 36.3668 9.7216 40.0414 12.2026 40.0414C13.2879 40.0414 13.5877 39.5974 14.0752 39.3643C10.922 36.9665 8.88104 33.1778 8.88104 28.9199C8.88104 24.5924 10.9887 20.7495 14.231 18.3594Z" fill="white"/>
<path d="M1.11044 26.1488C1.21394 26.4728 1.32421 26.7959 1.43932 27.117C1.45193 27.1488 1.46261 27.179 1.47317 27.21C1.55345 27.4296 1.63954 27.6462 1.72465 27.8638C4.34495 20.2622 11.5646 14.7836 20.0455 14.7836C25.2019 14.7836 30.4116 16.8371 34.3396 20.4188C34.3909 20.4644 34.4372 20.5137 34.4877 20.56C34.5041 20.2563 34.5156 19.9555 34.5156 19.6557C34.5156 18.0626 34.2922 16.6088 33.8656 15.3233C33.7592 15.0031 33.6394 14.6917 33.5078 14.3928C33.3762 14.0939 33.2321 13.8047 33.0754 13.5281C32.9196 13.2505 32.7514 12.9855 32.5705 12.732C32.4815 12.6054 32.3877 12.4814 32.2919 12.3606C31.2366 11.0335 29.8293 10.075 28.1211 9.56427C27.1896 9.28668 26.1682 9.14062 25.0655 9.14062C23.4231 9.14062 21.9142 9.32815 20.5978 9.74609C20.5717 9.75432 20.5446 9.76253 20.5185 9.77349C20.1451 9.88097 19.7853 9.99887 19.44 10.1275C18.7097 10.3617 17.962 10.5628 17.2578 10.5628C16.5537 10.5628 15.806 10.3615 15.0757 10.1275C14.7304 9.99893 14.3706 9.88075 13.9972 9.77349C13.9711 9.76527 13.944 9.75432 13.9179 9.74609C12.6014 9.32824 11.0915 9.14062 9.45011 9.14062C8.34743 9.14062 7.32601 9.28677 6.39454 9.56427C4.68636 10.075 3.27803 11.0335 2.22372 12.3606C2.12795 12.4815 2.03416 12.6055 1.94419 12.732C1.76427 12.9854 1.59597 13.2505 1.43928 13.5281C1.28354 13.8047 1.13944 14.0939 1.0079 14.3928C0.876343 14.6917 0.756404 15.0031 0.650001 15.3233C0.223441 16.6088 0 18.0626 0 19.6557C0 19.9787 0.0126166 20.3057 0.0309594 20.6336C0.0367173 20.7331 0.0463113 20.8337 0.0542626 20.9334C0.0718104 21.1676 0.0919998 21.4016 0.119089 21.6366C0.130605 21.746 0.145126 21.8551 0.159713 21.9645C0.189709 22.2033 0.225493 22.4423 0.26418 22.6822C0.280631 22.7771 0.295133 22.8709 0.312544 22.9656C0.365735 23.2645 0.424742 23.5634 0.490518 23.8622C0.497373 23.8941 0.503132 23.9261 0.510809 23.9579C0.669452 24.664 0.862894 25.3701 1.0844 26.0704C1.09317 26.0979 1.10166 26.1228 1.11044 26.1488Z" fill="white"/>
<path d="M12.145 28.6053C12.145 22.9323 16.7434 18.334 22.4163 18.334C28.0903 18.334 32.6886 22.9323 32.6886 28.6053C32.6886 34.2782 28.0903 38.8766 22.4163 38.8766C16.7434 38.8766 12.145 34.2782 12.145 28.6053Z" fill="white"/>
</g>
<defs>
<clipPath id="clip0_3588_206937">
<rect width="103.057" height="39.169" fill="white" transform="translate(0 0.916016)"/>
</clipPath>
</defs>
</svg>
