<svg width="279" height="42" viewBox="0 0 279 42" fill="none" xmlns="http://www.w3.org/2000/svg">
<path d="M3.11949 14.7386V19.829H10.8332V22.1197H3.11949V29.5008H0V12.397H12.9319V14.6877L3.11949 14.7386ZM30.1744 12.4479C31.9894 12.4479 32.7267 12.7024 33.5209 13.1606C34.5418 14.0768 35.3358 15.2476 35.3358 20.9999C35.3358 26.752 34.5418 27.9228 33.5209 28.8391C32.7267 29.2973 32.2163 29.5518 30.1744 29.5518H24.5025C22.6875 29.5518 21.9502 29.2973 21.1561 28.8391C20.1352 27.9228 19.341 26.752 19.341 20.9999C19.341 15.2476 20.1352 14.0768 21.1561 13.1606C21.9502 12.7024 22.4607 12.4479 24.5025 12.4479H30.1744ZM23.198 27.0066C23.4816 27.2611 23.7084 27.2611 24.7294 27.2611H29.8908C30.9117 27.2611 31.1953 27.2611 31.4222 27.0066C31.7058 26.752 32.2163 26.0903 32.2163 20.9999C32.2163 16.1639 31.7058 15.1967 31.4222 14.9931C31.1387 14.7386 30.9117 14.7386 29.8908 14.7386H24.7294C23.7084 14.7386 23.4248 14.7386 23.198 14.9931C22.9711 15.2476 22.4039 15.9094 22.4039 20.9999C22.6875 25.8357 22.9711 26.803 23.198 27.0066ZM59.0443 22.3743C59.0443 26.752 58.5339 27.4647 57.5129 28.381C56.492 29.0937 55.1874 29.2973 52.6351 29.2973H49.7991C47.2467 29.2973 45.9423 29.0427 44.9213 28.381C43.9004 27.4647 43.3899 26.5484 43.3899 22.3743V12.4479H46.5094V23.0869C46.5094 26.0903 46.7931 26.5484 47.3035 26.803C47.587 27.0574 48.0975 27.2611 50.423 27.2611H52.2381C54.28 27.2611 54.7904 27.2611 55.3576 26.803C55.868 26.3448 55.868 26.3448 55.868 23.0869V12.4479H58.9875L59.0443 22.3743ZM83.7741 29.5518H80.4273C79.6328 29.5518 79.4063 29.2973 78.8959 28.8391L71.1825 16.113H70.6721V29.5008H67.5522V12.397H71.1825C71.9757 12.397 72.2035 12.6515 72.7139 13.1096L80.2008 25.1231H80.7113V12.1934H83.8304L83.7741 29.5518ZM101.3 12.4479C103.625 12.4479 105.156 12.7024 106.177 13.6187C107.482 14.535 108.219 16.8766 108.219 20.9999C108.219 25.174 107.709 27.2611 106.177 28.381C105.156 29.2973 103.853 29.5518 101.3 29.5518H92.5647V12.4479H101.3ZM103.569 15.1967C103.058 14.7386 102.264 14.7386 101.243 14.7386H95.8552V27.2101H101.243C102.548 27.2101 103.058 27.2101 103.569 26.752C104.363 26.0394 104.59 24.9194 104.59 21.2034C104.874 17.0802 104.363 15.9094 103.569 15.1967ZM129.603 29.5518H115.934V12.4479H129.603V14.7386H119.053V19.3709H127.787V21.6616H119.053V26.9557H129.603V29.5518ZM148.434 22.8324C148.15 22.5779 147.413 22.5779 146.392 22.5779H140.719V29.7554H137.6V12.6515H148.434C149.737 12.6515 150.758 12.906 151.269 13.3642C152.063 14.0768 152.574 14.9931 152.574 17.5383C152.574 20.5417 151.553 21.458 149.227 21.7124C151.269 21.967 152.063 22.4252 152.347 24.9704C152.347 27.2611 152.63 28.89 152.63 29.8063H149.511C149.227 28.6355 149.227 27.0066 149.227 25.174C148.944 23.545 148.66 23.0869 148.434 22.8324ZM147.413 20.2872C148.206 20.2872 148.434 20.0326 148.716 20.0326C149 19.7782 149.227 19.32 149.227 17.4875C149.227 15.6549 148.944 15.1967 148.716 14.9422C148.49 14.6877 148.206 14.6877 147.413 14.6877H140.719V20.2363L147.413 20.2872ZM174.184 28.8391C173.673 29.2973 172.652 29.5518 171.064 29.5518H164.371C162.839 29.5518 161.818 29.2973 161.252 28.8391C160.457 28.1264 160.231 27.2101 160.231 24.2068H163.35C163.35 26.2939 163.634 26.752 163.634 27.0066C163.918 27.2611 164.144 27.2611 164.939 27.2611H170.61C171.405 27.2611 171.631 27.2611 171.915 27.0066C172.198 26.752 172.198 26.0903 172.198 24.7159C172.198 23.545 172.198 23.0869 171.915 22.8833C171.631 22.6287 171.405 22.6287 170.61 22.6287L164.428 22.1706C162.897 21.9161 162.102 21.7124 161.592 21.2543C160.797 20.5417 160.571 19.8799 160.571 17.5383C160.571 15.2476 160.855 14.2804 161.876 13.3642C162.386 12.906 163.407 12.6515 164.995 12.6515H171.177C172.708 12.6515 173.729 12.906 174.297 13.3642C175.091 14.0768 175.318 14.7386 175.318 17.9965H172.198C172.198 16.6051 172.104 15.7567 171.915 15.4513C171.631 15.1967 171.405 15.1967 170.61 15.1967H165.449C164.655 15.1967 164.428 15.1967 164.144 15.4513C163.86 15.7058 163.86 16.3675 163.86 17.7419C163.86 18.9127 163.86 19.3709 164.144 19.5745C164.428 19.829 164.655 19.829 165.449 19.829L171.631 20.2872C172.936 20.2872 173.957 20.5417 174.468 21.2034C175.261 21.9161 175.489 22.5779 175.489 25.1231C175.489 27.0066 175.204 27.9228 174.184 28.8391ZM197.098 14.7386V19.829H204.812V22.1197H197.098V29.5008H193.978V12.397H206.854V14.6877L197.098 14.7386ZM229.825 22.3743C229.825 26.752 229.314 27.4647 228.293 28.381C227.272 29.0937 225.967 29.2973 223.415 29.2973H220.58C218.028 29.2973 216.723 29.0427 215.702 28.381C214.681 27.4647 214.17 26.5484 214.17 22.3743V12.4479H217.289V23.0869C217.289 26.0903 217.573 26.5484 218.084 26.803C218.368 27.0574 218.878 27.2611 221.203 27.2611H223.018C225.06 27.2611 225.571 27.2611 226.138 26.803C226.648 26.3448 226.648 26.3448 226.648 23.0869V12.4479H229.768V22.3743H229.825ZM254.554 29.5518H251.208C250.414 29.5518 250.187 29.2973 249.677 28.8391L241.962 16.113H241.452V29.5008H238.333V12.397H241.962C242.757 12.397 242.983 12.6515 243.494 13.1096L250.98 25.1231H251.491V12.1934H254.611L254.554 29.5518ZM272.08 12.4479C274.406 12.4479 275.937 12.7024 276.958 13.6187C278.263 14.535 279 16.8766 279 20.9999C279 25.174 278.49 27.2611 276.958 28.381C275.937 29.2973 274.632 29.5518 272.08 29.5518H263.346V12.4479H272.08ZM274.406 15.1967C273.895 14.7386 273.101 14.7386 272.08 14.7386H266.692V27.2101H272.08C273.385 27.2101 273.895 27.2101 274.406 26.752C275.2 26.0394 275.427 24.9194 275.427 21.2034C275.427 17.0802 275.143 15.9094 274.406 15.1967Z" fill="white"/>
</svg>
