<svg width="167" height="43" viewBox="0 0 167 43" fill="none" xmlns="http://www.w3.org/2000/svg">
<path d="M49.7785 11.3398C52.245 11.3398 54.1501 12.0652 55.6075 13.5169C57.7377 15.5907 57.7381 18.0784 57.7381 21.5001C57.7381 24.196 57.7377 26.2706 56.7287 28.0333L58.8592 31.4559H51.5719C51.0113 31.5596 50.4512 31.6624 49.7785 31.6624C47.3121 31.6624 45.5169 30.937 43.9474 29.4854C41.9742 27.6604 41.8256 25.5134 41.8183 22.6926L41.8186 21.9063L41.819 21.5001L41.82 20.6737C41.8323 17.58 41.9876 15.3294 43.9474 13.5169C45.4048 12.1689 47.3121 11.3398 49.7785 11.3398ZM93.9515 11.3398C96.4179 11.3398 98.2109 12.1689 99.7804 13.5169C101.911 15.487 101.911 17.9747 101.911 21.5001C101.911 24.9218 101.911 27.4116 99.7804 29.4854C98.323 30.937 96.4179 31.6624 93.9515 31.6624C91.485 31.6624 89.5777 30.8333 88.1203 29.4854C85.9901 27.5153 85.9897 25.0255 85.9897 21.5001L85.9893 21.094C85.9845 17.88 85.9677 15.5077 88.1203 13.5169C89.5777 12.0652 91.485 11.3398 93.9515 11.3398ZM8.29679 11.4431C11.2117 11.4431 13.4531 12.0644 15.2469 13.7235L12.5558 16.1091C11.2104 14.8648 9.53047 14.7603 8.18511 14.7603C5.94286 14.7603 4.82173 15.9013 4.82173 17.2493C4.82173 17.7677 5.04552 18.2866 5.49397 18.7013C5.94242 19.1161 6.61378 19.3243 7.51069 19.5317L10.0902 19.8415C12.1082 20.0489 13.3406 20.5673 14.2375 21.3968C15.3586 22.4337 15.9192 23.885 15.9192 25.6477C15.9192 29.4841 12.3324 31.6624 7.8479 31.6624C4.59663 31.6624 2.13014 31.0403 0 29.0702L2.69115 26.5813C4.0365 27.8255 5.94198 28.2399 7.8479 28.2399C10.3144 28.2399 11.6602 27.412 11.6602 25.753C11.6602 25.0272 11.4364 24.5071 10.9879 24.0923C10.5395 23.6776 10.0897 23.5747 9.0807 23.3673L6.50342 23.0554C4.70961 22.8481 3.25084 22.2263 2.35393 21.3968C1.34492 20.4636 0.783916 19.1169 0.783916 17.4579C0.783916 13.9325 3.58805 11.4431 8.29679 11.4431ZM68.2772 11.5464V24.5075C68.2772 26.7886 69.7333 28.1366 71.9756 28.1366C74.2178 28.1366 75.6762 26.7886 75.6762 24.5075V11.5464H79.8235V24.6108C79.8235 28.862 76.348 31.6624 71.9756 31.6624C67.6032 31.6624 64.016 28.862 64.016 24.6108V11.5464H68.2772ZM36.2133 11.5464V14.9689H26.2348V19.6349H34.755V23.1608H26.2348V28.0333H36.2133V31.4558H21.9737V11.5464H36.2133ZM112.225 11.5464V31.4558H108.077V11.5464H112.225ZM128.593 11.5464L136.44 31.4558H132.07L130.835 27.93H123.212L121.866 31.4558H117.495L125.343 11.5464H128.593ZM166.488 28.9669V31.4559H146.868L149.559 28.9669H166.488ZM147.652 11.5464V27.203L144.963 29.6919V11.5464H147.652ZM49.6669 14.8657C48.5457 14.8657 47.5363 15.2804 46.9757 15.9025C46.1909 16.732 45.9663 17.6636 45.9663 21.5001L45.9671 21.8867C45.9824 25.4008 46.218 26.2988 46.9757 27.0997C47.5363 27.7218 48.5457 28.1366 49.6669 28.1366C50.788 28.1366 51.7953 27.7218 52.3558 27.0997C53.1406 26.2702 53.3653 25.3366 53.3653 21.5001L53.3645 21.1135C53.3491 17.5995 53.1136 16.7034 52.3558 15.9025C51.7953 15.2804 50.788 14.8657 49.6669 14.8657ZM93.9515 14.8657C92.8303 14.8657 91.8209 15.2804 91.2603 15.9025C90.4755 16.732 90.2508 17.6636 90.2508 21.5001L90.2517 21.8867C90.267 25.4008 90.5026 26.2988 91.2603 27.0997C91.8209 27.7218 92.8303 28.1366 93.9515 28.1366C95.0726 28.1366 96.0798 27.7218 96.6404 27.0997C97.4252 26.2702 97.6499 25.3366 97.6499 21.5001C97.6499 17.6636 97.4252 16.732 96.6404 15.9025C96.0798 15.2804 95.0726 14.8657 93.9515 14.8657ZM166.488 23.989V26.478H152.25L154.939 23.989H166.488ZM153.034 11.5464V22.2272L150.343 24.7161V11.5464H153.034ZM127.025 17.3526L124.334 24.6108H129.714L127.025 17.3526ZM166.488 19.0132V21.5001H157.63L160.321 19.0132H166.488ZM158.416 11.5464V17.2493L155.725 19.7382V11.5464H158.416ZM166.488 11.5464V16.5243H161.105V11.5464H166.488Z" fill="white"/>
</svg>
