<svg width="111" height="43" viewBox="0 0 111 43" fill="none" xmlns="http://www.w3.org/2000/svg">
<g clip-path="url(#clip0_3588_206971)">
<path d="M45.2761 11.3398C45.3582 12.4461 45.443 13.5424 45.5279 14.6421C45.6127 15.7393 45.6976 16.8365 45.7797 17.9437H45.2761C44.5647 15.9796 43.5357 14.5766 42.2112 13.6747C40.8866 12.8029 39.2885 12.372 37.4495 12.372C35.8951 12.372 34.494 12.7127 33.2352 13.334C32.0092 14.0255 30.9912 15.0476 30.3125 16.4806C29.5901 17.9136 29.2179 19.6873 29.2179 21.8418C29.2179 23.5855 29.5572 25.1087 30.2359 26.3914C30.8817 27.694 31.9435 28.6662 33.3009 29.3777C34.6692 30.0691 36.1907 30.4098 37.964 30.4098C39.4637 30.4098 40.821 30.1292 41.9813 29.568C43.1416 29.0369 44.4333 27.9847 45.7906 26.3613C45.8804 26.4206 45.9655 26.4654 46.0483 26.5088C46.1471 26.5608 46.2425 26.611 46.3379 26.682C45.1776 28.4256 43.7875 29.6382 42.2221 30.4498C40.6568 31.2916 38.8178 31.6624 36.6723 31.6624C32.7863 31.6624 29.7651 30.51 27.6526 28.0849C26.0872 26.3112 25.2662 24.2168 25.2662 21.8218C25.2662 19.8878 25.8136 18.084 26.8315 16.4606C27.8824 14.8472 29.3492 13.5946 31.1882 12.6927C32.9943 11.7808 34.9975 11.3499 37.1758 11.3499C38.8835 11.3499 40.5474 11.6906 42.1783 12.372C42.649 12.5925 42.9884 12.6827 43.1964 12.6827C43.5028 12.6827 43.8093 12.6225 44.0173 12.4321C44.3238 12.1515 44.5318 11.8008 44.6632 11.3398H45.2761ZM67.6286 11.3398C67.7047 12.3018 67.7869 13.2561 67.8691 14.2095C67.9762 15.4518 68.083 16.6913 68.1759 17.9437H67.6286C66.9499 15.9796 65.8881 14.5766 64.5637 13.6747C63.2719 12.8029 61.6738 12.372 59.8348 12.372C58.2694 12.372 56.8793 12.7127 55.6204 13.334C54.3507 14.0255 53.3655 15.0476 52.654 16.4806C51.9424 17.9136 51.5703 19.6873 51.5703 21.8418C51.5703 23.5855 51.9424 25.1087 52.5883 26.3914C53.2779 27.694 54.3288 28.6662 55.6862 29.3777C57.0106 30.0691 58.5869 30.4098 60.3164 30.4098C61.8489 30.4098 63.1734 30.1292 64.3337 29.568C65.4831 29.0369 66.7857 27.9847 68.1759 26.3613C68.2726 26.438 68.373 26.4903 68.4817 26.547C68.5574 26.5866 68.6378 26.6285 68.7232 26.682C67.5629 28.4256 66.1727 29.6382 64.6074 30.4498C63.0421 31.2916 61.2031 31.6624 59.0248 31.6624C55.1388 31.6624 52.1176 30.51 50.0378 28.0849C48.4725 26.3112 47.6515 24.2168 47.6515 21.8218C47.6515 19.8878 48.1988 18.084 49.2169 16.4606C50.2349 14.8472 51.7017 13.5946 53.5407 12.6927C55.3797 11.7808 57.3828 11.3499 59.5611 11.3499C61.236 11.3499 62.9326 11.6906 64.5308 12.372C65.0343 12.5925 65.3737 12.6827 65.5816 12.6827C65.8881 12.6827 66.1618 12.6225 66.4026 12.4321C66.6762 12.1515 66.9171 11.8008 67.0156 11.3398H67.6286ZM12.7106 11.3492C13.8486 13.6404 15.0043 15.9137 16.1585 18.1842C17.7354 21.2861 19.3097 24.3829 20.8328 27.513C21.4787 28.8258 22.1244 29.6375 22.639 30.0384C23.1862 30.4091 23.9306 30.6296 24.883 30.6897V31.2208H15.6333V30.6897C16.5857 30.6296 17.2314 30.5093 17.5379 30.2889C17.8773 30.0684 18.0196 29.8179 18.0196 29.5072C18.0196 29.0663 17.8225 28.415 17.3409 27.513L17.1545 27.1443C16.7441 26.3331 16.3309 25.5163 15.9507 24.7072H6.89811C6.35079 25.7393 5.80347 26.7715 5.29994 27.7936C4.89492 28.5453 4.71978 29.1064 4.71978 29.4772C4.71978 29.7578 4.88398 30.0384 5.22332 30.2688C5.52981 30.4793 6.28511 30.6396 7.40164 30.6997V31.2309H0.0566406V30.6997C1.04181 30.5395 1.65481 30.359 1.9613 30.1385C2.54146 29.6676 3.1873 28.7356 3.8988 27.3327C5.27353 24.6111 6.68248 21.8999 8.09363 19.1844C9.44661 16.5809 10.8017 13.9735 12.1305 11.3492H12.7106ZM87.5072 11.7808C87.5383 12.3629 87.5731 12.94 87.6078 13.5172C87.6585 14.3592 87.709 15.1991 87.748 16.0497H87.1021C86.8614 15.0275 86.5877 14.3361 86.2812 13.9353C86.0075 13.5645 85.5368 13.2839 84.9896 13.0634C84.5079 12.9332 83.6978 12.843 82.5376 12.843H76.1449V20.5391H81.2788C82.6141 20.5391 83.5008 20.3487 83.9387 20.0381C84.5517 19.5771 84.891 18.8255 84.9567 17.7031H85.6025V24.4573H84.9567C84.7816 23.5253 84.6064 22.9341 84.475 22.6536C84.278 22.3028 83.8949 22.0623 83.4571 21.8719C82.9754 21.6814 82.2639 21.5612 81.2788 21.5612H76.1449V27.9746C76.1449 28.8465 76.1777 29.3375 76.2762 29.5279C76.3528 29.7183 76.5499 29.8787 76.7579 29.9688C76.9987 30.0991 77.4365 30.1593 78.0824 30.1593H82.034C83.3585 30.1593 84.3109 30.0991 84.9239 29.9087C85.504 29.7584 86.0732 29.4778 86.6205 29.0369C87.3321 28.4156 88.0764 27.5438 88.8431 26.3613H89.521C89.1989 27.1727 88.859 27.9816 88.5193 28.7923C88.1802 29.6012 87.8409 30.41 87.5182 31.2215H69.4895V30.6903H70.3433C70.8906 30.6903 71.3941 30.5701 71.9087 30.3496C72.248 30.1993 72.5216 29.9788 72.653 29.6682C72.7625 29.3776 72.861 28.7262 72.861 27.7943V15.1779C72.861 13.9353 72.6859 13.1837 72.3794 12.9031C71.9634 12.5023 71.2847 12.3119 70.3324 12.3119H69.4786V11.7808H87.5072ZM100.533 11.7707V12.3019C99.3074 12.3019 98.4315 12.392 97.9497 12.6125C97.4465 12.7929 97.1075 13.0434 96.899 13.3541C96.7242 13.6747 96.6257 14.3862 96.6257 15.5386V27.7542C96.6257 28.5358 96.7242 29.0971 96.899 29.4077C97.0303 29.5981 97.2389 29.7584 97.545 29.8486C97.7875 29.9318 98.5895 29.9638 99.891 29.9683L101.924 29.9688C103.729 29.9688 104.989 29.8787 105.7 29.6582C106.411 29.4378 107.09 29.0369 107.67 28.4757C108.284 27.9145 108.897 27.0428 109.476 25.8302C109.685 25.9004 109.86 25.9304 110.057 25.9404C109.785 26.6621 109.504 27.3839 109.222 28.1078C108.821 29.1343 108.421 30.1627 108.042 31.2015H89.9479V30.6703H90.8353C91.831 30.6703 92.5427 30.3897 92.9473 29.8586C93.1887 29.548 93.3201 28.8365 93.3201 27.7442V15.228C93.3201 14.0155 93.1443 13.2338 92.8382 12.9532C92.3998 12.5223 91.7218 12.3019 90.8353 12.3019H89.9479V11.7707H100.533ZM11.4846 15.7986C10.4115 17.9258 9.29522 20.0465 8.18239 22.1606C7.92175 22.6557 7.66131 23.1506 7.40164 23.645H15.4363C14.7906 22.3377 14.1255 21.0297 13.4604 19.7216C12.7954 18.4139 12.1304 17.1062 11.4846 15.7986Z" fill="white"/>
</g>
<defs>
<clipPath id="clip0_3588_206971">
<rect width="110" height="42" fill="white" transform="translate(0.0566406 0.5)"/>
</clipPath>
</defs>
</svg>
