<?xml version="1.0" encoding="utf-8"?>
<!-- Generator: Adobe Illustrator 28.1.0, SVG Export Plug-In . SVG Version: 6.00 Build 0)  -->
<svg version="1.1" id="Ebene_1" xmlns="http://www.w3.org/2000/svg" xmlns:xlink="http://www.w3.org/1999/xlink" x="0px" y="0px"
	 viewBox="0 0 167 43" style="enable-background:new 0 0 167 43;" xml:space="preserve">
<style type="text/css">
	.st0{fill-rule:evenodd;clip-rule:evenodd;fill:#FFFFFF;}
</style>
<path class="st0" d="M104.97,27.38c0,2.59-2.09,4.85-4.76,4.85c-2.3,0-4.94-1.12-4.94-4.94V15.77c0-2.74,1.97-4.82,4.88-4.82
	c2.77,0,4.82,2.08,4.82,5v1.18h-3v-1c0-1.17-0.7-2.18-1.85-2.18c-1.5,0-1.85,1.03-1.85,2.44v10.7c0,1.2,0.47,2.14,1.82,2.14
	c0.82,0,1.88-0.47,1.88-2.12v-1.03h3V27.38z"/>
<path class="st0" d="M110.14,11.12h2.5l4.67,20.93h-3l-0.88-4.5h-4.09l-0.88,4.5h-3L110.14,11.12z M111.41,17.15h-0.06l-1.47,7.58h3
	L111.41,17.15z"/>
<path class="st0" d="M118.82,11.12h4.5c1.65,0,2.85,0.38,3.88,1.47c1.03,1.09,1.35,2.41,1.35,4.91c0,1.82-0.15,3.06-0.85,4.21
	c-0.82,1.35-2.15,2.18-4.35,2.18h-1.53v8.17h-3V11.12z M121.82,21.06h1.44c2.44,0,2.47-1.44,2.47-3.53c0-1.97,0-3.59-2.35-3.59
	h-1.56V21.06z"/>
<path class="st0" d="M130.28,32.05h3V11.12h-3V32.05z"/>
<path class="st0" d="M138.58,13.94h-3.47v-2.82h9.94v2.82h-3.47v18.11h-3V13.94z"/>
<path class="st0" d="M148.07,11.12h2.5l4.68,20.93h-3l-0.88-4.5h-4.09l-0.88,4.5h-3L148.07,11.12z M149.34,17.15h-0.06l-1.47,7.58h3
	L149.34,17.15z"/>
<path class="st0" d="M156.96,11.12h3v17.93h5.94v3h-8.94V11.12z"/>
<path class="st0" d="M13.1,32.04l11.06-6.39v-4.75L13.1,27.3V32.04z"/>
<path class="st0" d="M13.1,17.6v4.75l11.06-6.39v-4.75L13.1,17.6z"/>
<path class="st0" d="M0.98,20.8l11.07,6.39v-4.75L0.98,16.06V20.8z"/>
<path class="st0" d="M53.82,20.47h1.7c2.09,0,2.41-1.18,2.41-3.26c0-2.12-0.35-3.26-2.56-3.26h-1.55V20.47z M50.82,11.12h4.82
	c3.56,0,5.29,2.09,5.29,6.14c0,2.41-0.68,4.17-2.58,5.23l3.23,9.55h-3.18l-2.79-8.93h-1.79v8.93h-3V11.12z"/>
<path class="st0" d="M27.35,13.94h3.47v18.1h3v-18.1h3.47v-2.82h-9.93V13.94z"/>
<path class="st0" d="M45.9,20.54h-3.7v-9.41h-3v20.92h3v-8.86h3.7v8.86h3V11.12h-3V20.54z"/>
<path class="st0" d="M63.04,32.04h3V11.12h-3V32.04z"/>
<path class="st0" d="M73.3,25.73h-0.06l-2.38-14.6h-3.17l4.26,20.92h2.64l4.29-20.92h-3.17L73.3,25.73z"/>
<path class="st0" d="M89.64,13.94v-2.82h-8.93v20.92h8.93v-2.99H83.7v-5.69h5.17v-2.82H83.7v-6.59H89.64z"/>
</svg>
